 http://img694.imageshack.us/img694/5639/lkrg.gif


When John takes his San Francisco friends to his deceased uncle\\\\\\\'s remote ranch to hunt wild pigs, it seems like a typical guys weekend with guns.

Cast:

Travis Aaron Wade ... John Hickman
Tina Huang ... Brooks
Howard Johnson Jr. ... Ben
Trevor Bullock ... Quincy
Rajiv Shah ... Wayne
Jason Foster ... Jake
Nick Tagas ... Ricky
Phillip K. Torretto ... Beer Belly Redneck
 
http://img824.imageshack.us/img824/6273/pig1.png 
http://img842.imageshack.us/img842/6018/pig2.png 
http://img814.imageshack.us/img814/8701/pig3.png 
http://img812.imageshack.us/img812/9032/pig4.png 
http://img594.imageshack.us/img594/3839/pig5.png 
http://img534.imageshack.us/img534/1613/pig6.png



General
Complete name : Pig Hunt 2008 DVDRip BigPerm LKRG\\\\\\\\PH_LKRG.m4v
Format : MPEG-4
Format profile : Base Media / Version 2
Codec ID : mp42
File size : 1.16 GiB
Duration : 1h 38mn
Overall bit rate : 1 684 Kbps

Video
ID : 1
Format : AVC
Format/Info : Advanced Video Codec
Format profile : Main@L3.0
Format settings, CABAC : Yes
Format settings, ReFrames : 2 frames
Codec ID : avc1
Codec ID/Info : Advanced Video Coding
Duration : 1h 38mn
Bit rate mode : Variable
Bit rate : 1 519 Kbps
Width : 720 pixels
Height : 480 pixels
Display aspect ratio : 16:9
Frame rate mode : Variable
Frame rate : 24.000 fps
Minimum frame rate : 14.985 fps
Maximum frame rate : 62.805 fps
Original frame rate : 23.976 fps
Standard : NTSC
Resolution : 8 bits
Colorimetry : 4:2:0
Scan type : Progressive
Bits/(Pixel*Frame) : 0.183
Stream size : 1.05 GiB (90%)
Writing library : x264 core 79

Audio
ID : 2
Format : AAC
Format/Info : Advanced Audio Codec
Format version : Version 4
Format profile : LC
Format settings, SBR : No
Codec ID : 40
Duration : 1h 38mn
Bit rate mode : Variable
Bit rate : 159 Kbps
Maximum bit rate : 255 Kbps
Channel(s) : 2 channels
Channel positions : Front: L R
Sampling rate : 48.0 KHz
Stream size : 113 MiB (9%)
Language : English
 
http://www.imdb.com/title/tt1022883/